<?xml version="1.0" encoding="utf-8"?>
<!-- Generator: Adobe Illustrator 16.0.0, SVG Export Plug-In . SVG Version: 6.00 Build 0)  -->
<!DOCTYPE svg PUBLIC "-//W3C//DTD SVG 1.1//EN" "http://www.w3.org/Graphics/SVG/1.1/DTD/svg11.dtd">
<svg version="1.1" id="Layer_1" xmlns="http://www.w3.org/2000/svg" xmlns:xlink="http://www.w3.org/1999/xlink" x="0px" y="0px"
	 width="58px" height="70px" viewBox="0 0 58 70" enable-background="new 0 0 58 70" xml:space="preserve">
<g>
	<g>
		<path fill-rule="evenodd" clip-rule="evenodd" fill="#28C0D4" d="M58,0C46.007,2.635,27.905,16.098,21,28
			c-7.45-0.727-14.458,8.009-21,22c6.723-2.453,13-5,13-5v7l11,8l6-3v13c0,0,19.27-16.097,14-26C54.267,33.37,57.728,14.809,58,0z
			 M39,34c-3.866,0-7-3.134-7-7s3.134-7,7-7s7,3.134,7,7S42.866,34,39,34z M12,57l6.906,5.188L21,61l-8-6L12,57z"/>
	</g>
</g>
</svg>
