<?xml version="1.0" encoding="utf-8"?>
<!-- Generator: Adobe Illustrator 16.0.0, SVG Export Plug-In . SVG Version: 6.00 Build 0)  -->
<!DOCTYPE svg PUBLIC "-//W3C//DTD SVG 1.1//EN" "http://www.w3.org/Graphics/SVG/1.1/DTD/svg11.dtd">
<svg version="1.1" id="Layer_1" xmlns="http://www.w3.org/2000/svg" xmlns:xlink="http://www.w3.org/1999/xlink" x="0px" y="0px"
	 width="89px" height="101px" viewBox="0 0 89 101" enable-background="new 0 0 89 101" xml:space="preserve">
<g transform="translate(0.000000,101.000000) scale(0.100000,-0.100000)">
	<path fill="#0069CA" d="M787.002,995c-20-7.998-47.002-21.001-57.998-28.999c-21.006-13.999-21.006-15,11.992-31.001
		c19.004-10,57.002-35,86.006-56.001C885,836.001,890,838.999,890,917.998C890,1013.999,872.998,1026.001,787.002,995z"/>
	<path fill="#0069CA" d="M547.002,817.998c-110-110.996-116.001-115-327.002-235C42.002,482.998,5,457.998,5,440
		c0-17.002,28.999-42.002,123.999-109.004C231.001,260,255,239.004,263.999,210c10-32.002,13.999-35,51.001-35
		c33.999,0,58.999-14.004,167.002-87.998C552.002,39.004,615.996,0,625,0c24.004,0,30.996,27.002,70.996,270
		C730.996,482.002,735,499.004,775,575c22.998,43.999,55,111.001,70,150l27.002,70l-42.998,37.002
		C789.004,866.001,682.998,930,665,930C662.002,930,607.998,878.999,547.002,817.998z M565,555c70-69.004-30-170-102.002-102.998
		C448.999,465,440,485,440,502.002C440,537.998,480,580,515,580C529.004,580,552.002,568.999,565,555z"/>
</g>
</svg>
