<?xml version="1.0" encoding="utf-8"?>
<!-- Generator: Adobe Illustrator 16.0.0, SVG Export Plug-In . SVG Version: 6.00 Build 0)  -->
<!DOCTYPE svg PUBLIC "-//W3C//DTD SVG 1.1//EN" "http://www.w3.org/Graphics/SVG/1.1/DTD/svg11.dtd">
<svg version="1.1" id="Layer_1" xmlns="http://www.w3.org/2000/svg" xmlns:xlink="http://www.w3.org/1999/xlink" x="0px" y="0px"
	 width="112px" height="125px" viewBox="0 0 112 125" enable-background="new 0 0 112 125" xml:space="preserve">
<g transform="translate(0.000000,125.000000) scale(0.100000,-0.100000)">
	<path fill="#463399" d="M1002.998,1230C810,1178.999,677.002,1098.999,513.999,935C373.999,792.998,357.998,785,220,785
		l-96.001,1.001l-62.998-90c-33.999-48.999-58.003-91.997-53.003-95.005c5-2.998,55-36.992,111.001-75
		C222.998,454.004,222.002,455,202.998,404.004c-1.997-6.006,85-73.008,193.003-149.004l196.997-137.002l30,17.002l29.004,17.002
		l110-75L872.998,0.996l16.006,22.002c10,12.002,38.994,52.998,65,90l47.998,69.004l-26.006,50.996
		c-31.992,64.004-48.994,149.004-40,202.002c3.008,20.996,28.008,80,55,130c95,177.998,137.002,362.002,125,551.001
		c-5.996,108.999-11.992,133.999-30,132.998C1080,1248.999,1042.998,1240,1002.998,1230z M900.996,952.002
		c48.008-40,17.002-122.002-46.992-122.002c-35,0-74.004,37.002-74.004,70c0,10,9.004,28.999,20.996,43.999
		C825.996,975,867.002,978.999,900.996,952.002z M779.004,756.001C799.004,735,805,720,805,683.999c0-38.999-5-50-32.998-74.995
		c-89.004-80-217.002,23.994-157.998,129.995C645,795,730,803.999,779.004,756.001z"/>
</g>
</svg>
